HIERARCHY
ROOT hip
{
	OFFSET 0.000000 0.000000 0.000000 
	CHANNELS 6 Xposition Yposition Zposition Xrotation Zrotation Yrotation
	JOINT abdomen
	{
		OFFSET 0.000000 3.402643 0.000000 
		CHANNELS 3 Xrotation Zrotation Yrotation
		JOINT chest
		{
			OFFSET 0.000000 8.438565 -0.680529 
			CHANNELS 3 Xrotation Zrotation Yrotation
			JOINT neck
			{
				OFFSET 0.000000 10.207942 -0.272212 
				CHANNELS 3 Xrotation Zrotation Yrotation
				JOINT head
				{
					OFFSET 0.000000 3.130431 0.000000 
					CHANNELS 3 Xrotation Zrotation Yrotation
					End Site
					{
						OFFSET 0.000000 3.130435 0.000000 
					}
				}
			}
			JOINT lCollar
			{
				OFFSET 3.470700 6.669187 -0.816635 
				CHANNELS 3 Yrotation Zrotation Xrotation
				JOINT lShldr
				{
					OFFSET 3.198488 0.000000 0.000000 
					CHANNELS 3 Zrotation Yrotation Xrotation
					JOINT lForeArm
					{
						OFFSET 10.139888 0.000000 0.000000 
						CHANNELS 3 Yrotation Zrotation Xrotation
						JOINT lHand
						{
							OFFSET 8.370511 0.000000 0.000000 
							CHANNELS 3 Zrotation Yrotation Xrotation
							End Site
							{
								OFFSET 4.083176 0.000000 0.000000 
							}
						}
					}
				}
			}
			JOINT rCollar
			{
				OFFSET -3.470700 6.669187 -0.816635 
				CHANNELS 3 Yrotation Zrotation Xrotation
				JOINT rShldr
				{
					OFFSET -3.198488 0.000000 0.000000 
					CHANNELS 3 Zrotation Yrotation Xrotation
					JOINT rForeArm
					{
						OFFSET -10.139888 0.000000 0.000000 
						CHANNELS 3 Yrotation Zrotation Xrotation
						JOINT rHand
						{
							OFFSET -8.370511 0.000000 0.000000 
							CHANNELS 3 Zrotation Yrotation Xrotation
							End Site
							{
								OFFSET -4.083176 0.000000 0.000000 
							}
						}
					}
				}
			}
		}
	}
	JOINT lThigh
	{
		OFFSET 5.308129 -1.633274 1.361059 
		CHANNELS 3 Xrotation Zrotation Yrotation
		JOINT lShin
		{
			OFFSET -2.041588 -20.007561 0.000000 
			CHANNELS 3 Xrotation Zrotation Yrotation
			JOINT lFoot
			{
				OFFSET 0.000000 -19.190928 -1.224953 
				CHANNELS 3 Xrotation Yrotation Zrotation
				End Site
				{
					OFFSET 0.000000 -2.449906 4.627600 
				}
			}
		}
	}
	JOINT rThigh
	{
		OFFSET -5.308129 -1.633274 1.361059 
		CHANNELS 3 Xrotation Zrotation Yrotation
		JOINT rShin
		{
			OFFSET 2.041588 -20.007561 0.000000 
			CHANNELS 3 Xrotation Zrotation Yrotation
			JOINT rFoot
			{
				OFFSET 0.000000 -19.190928 -1.224953 
				CHANNELS 3 Xrotation Yrotation Zrotation
				End Site
				{
					OFFSET 0.000000 -2.449906 4.627600 
				}
			}
		}
	}
}
MOTION
Frames: 19
Frame Time: 0.033333
-7.914216 43.763054 42.521965 -17.929688 -7.568360 140.418640 14.580077 4.306641 4.960938 -18.447266 3.242188 3.965396 -7.890625 -0.517578 16.679688 19.980471 -13.193360 16.023163 2.451172 2.373047 0.058189 -66.855469 9.531251 0.878906 -92.392578 -3.066406 -36.259247 22.578146 -120.332031 -18.436163 6.494141 3.417969 -0.214844 62.607418 -1.250000 24.658201 55.517582 2.998047 -30.439964 7.900391 10.136719 1.554501 -54.006405 23.783468 13.188238 45.098278 -0.764909 -2.622921 -13.515603 -0.118785 -4.960490 -20.688581 -7.898823 -2.497772 43.330616 0.338661 2.507993 -33.758514 -23.801765 -10.446959 
-7.914094 43.747498 42.493420 -17.929688 -7.568360 140.242859 14.580077 4.306641 4.960938 -18.281250 3.066406 3.964844 -8.066406 -0.517578 16.679688 19.980471 -13.193360 16.023163 2.275391 2.373047 0.067955 -66.679688 9.394530 0.693359 -92.392578 -3.056641 -36.435024 22.470722 -120.498047 -18.289667 6.494141 3.417969 -0.214844 62.597660 -1.093750 24.579893 55.458984 2.900391 -30.303226 7.724609 10.312501 1.542969 -54.006405 23.783468 13.188238 45.098282 -0.764914 -2.622923 -13.697889 -0.149605 -4.980034 -20.732157 -7.734387 -2.703035 43.339649 0.338987 2.527921 -33.905933 -23.826824 -10.722353 
-7.924873 43.735497 42.471981 -17.929688 -7.568360 140.242859 14.570312 4.257813 5.126953 -18.457031 2.890625 3.965336 -7.714844 -0.341797 16.660156 19.628906 -13.193360 16.013397 2.275391 2.548828 0.058159 -66.865234 9.619140 0.468750 -92.392578 -3.056641 -36.435024 22.578146 -120.332031 -18.436163 6.503907 3.593750 -0.244753 62.792969 -0.996094 24.462893 55.400391 2.949219 -30.068859 7.373047 10.322265 1.525187 -54.226852 23.631716 13.572093 45.435509 -0.595985 -2.738100 -13.697589 -0.020035 -4.912332 -20.671001 -7.899307 -2.683042 43.339684 0.331964 2.525289 -34.041786 -23.627003 -10.568847 
-7.934428 43.729740 42.454098 -17.929688 -7.568360 140.242859 14.755860 4.306641 4.961671 -18.632813 2.539063 3.955511 -7.539063 0.029297 16.787109 19.111326 -13.193360 16.181641 2.275391 2.724609 0.058130 -66.865234 9.648438 0.322266 -92.392578 -3.056641 -36.610809 22.578146 -120.332031 -18.436163 6.679688 3.769531 -0.274080 62.841797 -1.210938 24.345495 55.400391 2.949219 -30.068859 7.011719 10.156250 1.503906 -54.382824 23.797371 13.459824 45.610867 -0.589037 -2.753793 -13.344834 0.163497 -5.018562 -20.650509 -7.889446 -2.830127 43.487061 0.348452 2.509296 -33.824642 -23.204050 -10.393255 
-7.930752 43.721409 42.435604 -17.929688 -7.568360 140.067078 14.931641 4.306641 4.960938 -18.808594 2.539062 3.955078 -7.363281 0.205078 16.767612 18.935547 -13.016921 16.170671 2.099609 3.076172 0.048828 -66.865234 10.185547 0.253906 -92.539063 -3.115234 -36.796875 23.007820 -120.419922 -18.650997 6.855469 3.945313 -0.302734 62.763676 -1.210938 24.267372 55.332031 2.998047 -29.824732 7.187500 9.980468 1.515364 -54.491283 24.061819 13.216548 45.794716 -0.774539 -2.827519 -13.567472 0.368015 -4.915572 -20.681515 -8.251260 -2.992282 43.521366 0.468600 2.401062 -33.636211 -22.909449 -9.918674 
-7.922546 43.721409 42.444664 -17.929688 -7.568360 139.891296 14.921875 4.257633 5.127845 -18.632813 2.363281 3.955482 -7.539062 0.371094 16.748093 18.935547 -13.192693 16.170643 2.275391 3.076172 0.038538 -66.875000 10.039063 0.118891 -92.675781 -3.173828 -37.167973 23.183601 -120.654297 -18.885355 6.855469 4.111328 -0.332031 62.636723 -0.996094 24.306473 55.332031 2.998047 -29.824732 7.333984 9.824219 1.347656 -54.647461 24.227974 13.102587 45.971329 -0.723071 -2.806305 -13.385039 0.320336 -4.937879 -20.630898 -7.879607 -3.191592 43.505852 0.348470 2.529568 -33.789032 -23.133654 -9.937367 
-7.924873 43.725574 42.495632 -18.115234 -7.568360 139.744812 15.097657 4.257813 5.127678 -18.632813 2.539063 4.131292 -7.890625 0.576172 16.894629 19.111326 -13.369141 16.181641 2.099609 3.251953 0.048828 -66.884766 10.273438 -0.154507 -92.958984 -3.125000 -37.343216 23.603521 -120.742188 -19.246675 6.855469 4.111328 -0.332031 62.470707 -0.849609 24.062304 55.332031 2.851563 -29.922361 7.529296 9.794922 1.533203 -54.787273 24.378864 12.993994 46.146355 -0.716066 -2.831872 -12.893583 0.659796 -4.756499 -20.993950 -7.870222 -3.378415 43.684822 0.332034 2.706300 -33.741821 -22.704523 -10.010567 
-7.928549 43.740395 42.620689 -18.291016 -7.568360 139.208984 15.439455 4.033203 5.235062 -18.632813 3.066406 4.316929 -8.417969 0.400391 16.923828 19.804688 -13.720702 16.201172 2.099609 3.076172 0.048828 -66.904297 10.488280 -0.361328 -93.378906 -3.125000 -37.909622 23.769550 -120.976555 -19.471264 6.855469 3.945313 -0.302734 62.255863 -0.488281 23.935465 55.332031 2.851563 -29.922361 7.880860 9.609375 1.554366 -55.087296 24.677444 12.928263 46.121517 -0.596378 -2.956693 -12.351791 0.951424 -4.787932 -21.340906 -7.702584 -4.255226 43.861057 0.358234 2.705115 -33.524227 -21.633581 -9.279624 
-7.946801 43.745052 42.847424 -18.632813 -7.568360 138.485046 15.771484 3.750000 5.507812 -18.974611 3.769531 4.492187 -8.945313 0.068359 17.138672 20.332029 -13.896485 16.386719 1.923828 3.076172 0.058070 -66.943359 10.751953 -0.781250 -93.916016 -3.154297 -38.828125 24.765638 -121.386726 -20.135288 7.031250 3.593750 -0.273438 62.236328 -0.185547 23.779266 55.244141 3.037110 -30.059113 7.880860 9.433594 1.554335 -55.697479 25.269291 12.235997 46.146885 -0.732924 -2.819317 -12.036886 1.363264 -4.784400 -22.221272 -8.054297 -5.631153 44.399326 0.458854 2.449333 -33.769558 -20.328518 -7.930395 
-7.973258 43.710873 43.196781 -18.818357 -7.568360 137.625656 16.279297 3.300781 5.722656 -18.974611 4.121094 4.843750 -9.814453 0.263672 17.294910 20.673828 -14.423828 16.394054 2.099609 3.251953 0.048828 -66.416016 10.771485 -0.798955 -94.423828 -3.310547 -40.292404 25.615259 -121.982422 -20.789532 7.382812 3.417969 -0.273438 62.138672 0.126953 23.535166 55.439453 3.037110 -30.674345 7.851562 8.935546 1.376953 -56.226650 26.159246 11.566130 46.146454 -0.706194 -2.827889 -11.340892 1.808612 -4.766542 -23.365587 -8.435801 -8.033420 45.623600 0.156178 2.562555 -33.388390 -18.092796 -6.933055 
-7.973871 43.599773 43.653805 -18.984375 -7.392579 136.933594 16.962891 3.017578 5.996608 -19.150391 4.472656 5.196074 -10.341797 0.468750 17.441383 21.201170 -14.775392 16.582031 2.275391 3.603516 0.018917 -65.722656 10.986328 -0.877046 -95.175781 -3.203125 -41.757816 26.435564 -122.587891 -21.453543 7.558594 3.242188 -0.264224 62.177731 0.751953 23.291014 55.498047 2.988281 -30.908201 7.666015 8.935546 1.367188 -56.883102 27.176687 11.050792 46.312645 -0.713426 -2.829662 -10.469802 2.189082 -4.570279 -24.227440 -9.130571 -10.196832 47.743980 0.292875 2.368450 -33.001930 -17.761618 -6.334176 
-7.936632 43.368256 44.200989 -18.818359 -7.207031 136.220688 17.470703 2.568359 6.211375 -19.150389 5.000000 5.547726 -10.869141 0.439453 17.265701 21.542969 -14.960937 16.416016 2.265625 3.964844 0.185547 -65.195320 11.347656 -0.839844 -96.191406 -3.232422 -42.577576 26.181644 -122.509773 -21.072689 7.900391 2.890625 -0.225102 62.099609 1.435547 23.164063 55.712891 3.134766 -30.947262 7.490234 8.945312 1.357422 -57.749344 28.219286 10.509557 47.026257 -0.540384 -2.804750 -9.578475 1.960664 -4.510762 -24.739647 -9.820180 -12.004534 50.885780 -0.009736 2.915940 -32.885296 -20.293705 -8.115786 
-7.856766 43.022945 44.858173 -18.632813 -6.865235 135.848450 17.802732 2.236328 6.650391 -18.798828 5.175781 6.074219 -11.054688 0.400391 16.923811 21.894533 -14.960938 15.895916 2.089844 4.140625 0.185547 -64.287117 12.031249 -0.605469 -97.441406 -3.349610 -41.688881 23.300781 -121.425781 -18.779297 8.076172 2.539063 -0.176214 62.167965 1.621094 22.607422 56.220703 2.958984 -31.104019 7.294922 8.798827 1.173369 -58.793659 29.263714 10.071548 47.889000 -0.423528 -2.973065 -8.880393 1.817174 -4.751870 -24.519501 -10.838621 -11.675483 54.222298 -0.195233 2.979609 -32.605812 -23.862186 -10.153757 
-7.735987 42.597160 45.654018 -18.466797 -6.679688 135.869141 17.939453 1.835938 7.255858 -18.447266 5.351563 6.778254 -11.406250 0.302734 16.220703 22.246094 -14.785155 15.205078 1.914063 3.964844 0.204403 -63.720707 12.314452 -0.253906 -98.798828 -3.251953 -38.486332 17.460941 -119.248039 -14.100319 8.076172 2.363281 -0.156653 61.884766 1.689453 21.992188 57.080078 3.125000 -31.104046 6.933594 8.632813 1.153811 -60.360874 30.312284 8.934931 48.584255 -0.557824 -3.239234 -7.821889 1.494870 -4.728528 -23.314999 -11.744325 -9.323230 55.458599 -0.058772 2.929726 -29.236544 -25.085119 -8.820088 
-7.602226 42.173328 46.648048 -18.457031 -6.513671 135.848495 18.076172 1.269531 7.793185 -17.919922 5.527344 7.491176 -12.119141 -0.126953 15.566406 22.421875 -14.257813 14.509315 2.099609 3.427734 0.039063 -63.164059 12.099609 -0.037016 -100.302734 -2.968750 -34.169922 10.673837 -117.226563 -8.202043 8.076172 2.363281 -0.156653 61.582031 1.621094 20.830078 58.007813 3.085938 -31.465370 6.582032 8.457032 1.134250 -62.227989 31.097794 7.491768 48.946590 -0.403925 -3.181379 -6.585250 1.406972 -4.945821 -21.684032 -11.529624 -6.938502 54.046989 -0.205083 2.957284 -26.168447 -22.822510 -6.535655 
-7.502024 41.858276 47.835392 -18.632813 -6.513672 136.200058 18.388670 0.546875 8.281250 -17.568359 5.527344 8.193359 -13.349609 -0.195313 15.048794 22.246094 -13.906251 13.798829 2.275391 2.724609 0.058130 -63.193359 11.806641 -0.283203 -101.787109 -3.017578 -30.986328 6.679707 -116.279297 -4.706022 8.251953 2.539063 -0.185547 61.289063 2.060547 19.687853 58.427734 3.076172 -31.748045 6.220703 8.291017 1.113281 -63.686878 31.188713 5.124722 47.722206 -0.606155 -3.031906 -4.828507 2.099445 -4.844112 -20.553511 -11.082142 -6.522380 51.419876 -0.177902 2.659879 -28.716082 -20.583288 -6.028970 
-7.482303 41.709324 49.111042 -19.169922 -6.689453 137.107681 18.720705 0.097656 8.496109 -17.392578 5.176031 8.369546 -14.941406 0.107422 14.648451 22.070313 -13.730469 13.444949 2.451172 2.197266 0.067985 -63.613281 11.425782 -0.935564 -102.812500 -2.910156 -29.833986 7.558615 -116.318352 -5.467739 8.427734 2.714844 -0.225072 60.947266 3.007812 19.102076 58.261719 2.998047 -32.304688 6.035156 8.320313 0.938915 -65.147339 30.522346 2.945509 45.791393 -0.715973 -2.648849 -2.907222 2.870300 -4.724090 -20.813343 -10.308094 -7.977958 50.197788 0.007543 2.504852 -33.642948 -20.134497 -7.946308 
-7.523215 41.709324 50.315403 -19.521484 -7.031250 138.154297 19.443361 -0.117188 8.056620 -17.216799 4.472656 8.193359 -16.171875 0.781250 14.394665 21.904295 -13.730469 13.437500 2.626953 2.197266 0.058594 -64.462891 11.113281 -2.009835 -103.154297 -2.880860 -31.152342 12.294942 -117.539063 -9.569206 8.437500 2.890625 -0.254399 60.498047 3.837891 19.335938 58.154301 3.144531 -32.910698 5.332031 8.681641 0.898438 -65.932304 29.245569 1.367464 43.845680 -0.588579 -3.160508 -1.601721 4.519598 -5.030298 -22.680670 -9.499286 -8.780650 51.243816 -0.195331 2.653849 -36.156754 -20.236788 -9.067678 
-7.595855 41.811729 51.289230 -19.687500 -7.568360 139.363953 19.990234 0.000000 7.724609 -17.041016 3.945312 7.666017 -17.226563 1.123047 14.345896 21.904295 -13.730469 13.437500 2.626953 2.197266 0.058594 -64.951172 11.269530 -2.800826 -103.164063 -2.958984 -33.896713 19.082047 -119.316414 -15.447968 8.437500 3.066406 -0.283726 60.058590 4.433594 19.355469 58.261719 2.998047 -32.304688 4.970703 8.515625 0.878906 -66.375259 27.899769 0.935317 43.835857 -0.595332 -3.162592 -1.216768 4.104604 -5.012987 -24.343813 -9.110652 -8.975401 52.473274 -0.058572 2.781896 -37.012325 -20.860918 -10.051465 
